<mxfile host="app.diagrams.net" modified="2024-05-29T02:17:17.887Z" agent="Mozilla/5.0 (Windows NT 10.0; Win64; x64) AppleWebKit/537.36 (KHTML, like Gecko) Chrome/125.0.0.0 Safari/537.36 Edg/125.0.0.0" etag="_leN8SFto26xEuFXMRPq" version="24.4.9" type="github">
  <diagram name="第 1 页" id="RxcuW7QTq_Tad5Jc69Qr">
    <mxGraphModel dx="1155" dy="654" grid="1" gridSize="10" guides="1" tooltips="1" connect="1" arrows="1" fold="1" page="1" pageScale="1" pageWidth="827" pageHeight="1169" math="0" shadow="0">
      <root>
        <mxCell id="0" />
        <mxCell id="1" parent="0" />
        <mxCell id="LfGsLXbPwmDilmIBg7VM-1" value="performance analysis tool" style="swimlane;whiteSpace=wrap;html=1;" vertex="1" parent="1">
          <mxGeometry x="350" y="210" width="350" height="400" as="geometry" />
        </mxCell>
        <mxCell id="LfGsLXbPwmDilmIBg7VM-8" value="" style="edgeStyle=orthogonalEdgeStyle;rounded=0;orthogonalLoop=1;jettySize=auto;html=1;" edge="1" parent="LfGsLXbPwmDilmIBg7VM-1" source="LfGsLXbPwmDilmIBg7VM-5" target="LfGsLXbPwmDilmIBg7VM-7">
          <mxGeometry relative="1" as="geometry" />
        </mxCell>
        <mxCell id="LfGsLXbPwmDilmIBg7VM-5" value="&lt;span style=&quot;font-size: 14px;&quot;&gt;处理perf.unfold文件，获取每个采样点的调用栈信息和计数器信息&lt;/span&gt;" style="rounded=0;whiteSpace=wrap;html=1;" vertex="1" parent="LfGsLXbPwmDilmIBg7VM-1">
          <mxGeometry x="20" y="50" width="300" height="60" as="geometry" />
        </mxCell>
        <mxCell id="LfGsLXbPwmDilmIBg7VM-10" value="" style="edgeStyle=orthogonalEdgeStyle;rounded=0;orthogonalLoop=1;jettySize=auto;html=1;" edge="1" parent="LfGsLXbPwmDilmIBg7VM-1" source="LfGsLXbPwmDilmIBg7VM-7" target="LfGsLXbPwmDilmIBg7VM-9">
          <mxGeometry relative="1" as="geometry" />
        </mxCell>
        <mxCell id="LfGsLXbPwmDilmIBg7VM-7" value="&lt;span style=&quot;font-size: 14px;&quot;&gt;根据调用栈信息得到类似火焰图的多叉树调用栈&lt;/span&gt;" style="rounded=0;whiteSpace=wrap;html=1;" vertex="1" parent="LfGsLXbPwmDilmIBg7VM-1">
          <mxGeometry x="20" y="140" width="300" height="60" as="geometry" />
        </mxCell>
        <mxCell id="LfGsLXbPwmDilmIBg7VM-12" value="" style="edgeStyle=orthogonalEdgeStyle;rounded=0;orthogonalLoop=1;jettySize=auto;html=1;" edge="1" parent="LfGsLXbPwmDilmIBg7VM-1" source="LfGsLXbPwmDilmIBg7VM-9" target="LfGsLXbPwmDilmIBg7VM-11">
          <mxGeometry relative="1" as="geometry" />
        </mxCell>
        <mxCell id="LfGsLXbPwmDilmIBg7VM-9" value="&lt;span style=&quot;font-size: 14px;&quot;&gt;根据整合后的调用栈和计数器信息计算每个函数的topdown四大顶类的占比结果&lt;/span&gt;" style="rounded=0;whiteSpace=wrap;html=1;" vertex="1" parent="LfGsLXbPwmDilmIBg7VM-1">
          <mxGeometry x="20" y="230" width="300" height="60" as="geometry" />
        </mxCell>
        <mxCell id="LfGsLXbPwmDilmIBg7VM-11" value="&lt;span style=&quot;font-size: 14px;&quot;&gt;命令行输出函数级别的topdown分析&lt;/span&gt;" style="rounded=0;whiteSpace=wrap;html=1;" vertex="1" parent="LfGsLXbPwmDilmIBg7VM-1">
          <mxGeometry x="20" y="320" width="300" height="50" as="geometry" />
        </mxCell>
        <mxCell id="LfGsLXbPwmDilmIBg7VM-4" value="" style="edgeStyle=orthogonalEdgeStyle;rounded=0;orthogonalLoop=1;jettySize=auto;html=1;" edge="1" parent="1" source="LfGsLXbPwmDilmIBg7VM-2" target="LfGsLXbPwmDilmIBg7VM-3">
          <mxGeometry relative="1" as="geometry" />
        </mxCell>
        <mxCell id="LfGsLXbPwmDilmIBg7VM-2" value="&lt;font style=&quot;font-size: 14px;&quot;&gt;采样事件：perf record -e &amp;lt;events&amp;gt;&lt;span class=&quot;eusoft-eudic-chrome-extension-translate-content&quot;&gt;&lt;span class=&quot;eusoft-eudic-chrome-extension-translate-white-space ng-star-inserted&quot;&gt;&amp;nbsp;&lt;/span&gt;&lt;/span&gt;&lt;/font&gt;" style="rounded=0;whiteSpace=wrap;html=1;" vertex="1" parent="1">
          <mxGeometry x="60" y="360" width="230" height="60" as="geometry" />
        </mxCell>
        <mxCell id="LfGsLXbPwmDilmIBg7VM-6" value="" style="edgeStyle=orthogonalEdgeStyle;rounded=0;orthogonalLoop=1;jettySize=auto;html=1;" edge="1" parent="1" source="LfGsLXbPwmDilmIBg7VM-3" target="LfGsLXbPwmDilmIBg7VM-5">
          <mxGeometry relative="1" as="geometry">
            <Array as="points">
              <mxPoint x="330" y="480" />
              <mxPoint x="330" y="290" />
            </Array>
          </mxGeometry>
        </mxCell>
        <mxCell id="LfGsLXbPwmDilmIBg7VM-3" value="&lt;font style=&quot;font-size: 14px;&quot;&gt;perf script 解析生成的perf.data&lt;/font&gt;" style="rounded=0;whiteSpace=wrap;html=1;" vertex="1" parent="1">
          <mxGeometry x="60" y="450" width="230" height="60" as="geometry" />
        </mxCell>
        <mxCell id="LfGsLXbPwmDilmIBg7VM-14" value="" style="edgeStyle=orthogonalEdgeStyle;rounded=0;orthogonalLoop=1;jettySize=auto;html=1;" edge="1" parent="1" source="LfGsLXbPwmDilmIBg7VM-13" target="LfGsLXbPwmDilmIBg7VM-2">
          <mxGeometry relative="1" as="geometry" />
        </mxCell>
        <mxCell id="LfGsLXbPwmDilmIBg7VM-13" value="&lt;span style=&quot;font-size: 14px;&quot;&gt;确定AMD的topdwon计算公式&lt;/span&gt;&lt;div&gt;&lt;span style=&quot;font-size: 14px;&quot;&gt;（perf采样的事件）&lt;/span&gt;&lt;span class=&quot;eusoft-eudic-chrome-extension-translate-content&quot;&gt;&lt;/span&gt;&lt;/div&gt;" style="rounded=0;whiteSpace=wrap;html=1;" vertex="1" parent="1">
          <mxGeometry x="60" y="270" width="230" height="60" as="geometry" />
        </mxCell>
      </root>
    </mxGraphModel>
  </diagram>
</mxfile>
